<mxfile host="65bd71144e">
    <diagram id="fefD8nJggKJTbuJhnj12" name="PÃ¡gina-1">
        <mxGraphModel dx="1403" dy="411" grid="1" gridSize="10" guides="1" tooltips="1" connect="1" arrows="1" fold="1" page="1" pageScale="1" pageWidth="827" pageHeight="1169" math="0" shadow="0">
            <root>
                <mxCell id="0"/>
                <mxCell id="1" parent="0"/>
                <mxCell id="2" value="inicio" style="ellipse;whiteSpace=wrap;html=1;fillColor=#60a917;fontColor=#ffffff;strokeColor=#2D7600;" vertex="1" parent="1">
                    <mxGeometry x="369" y="30" width="90" height="40" as="geometry"/>
                </mxCell>
                <mxCell id="3" value="" style="endArrow=classic;startArrow=classic;html=1;" edge="1" parent="1">
                    <mxGeometry width="50" height="50" relative="1" as="geometry">
                        <mxPoint x="414" y="110" as="sourcePoint"/>
                        <mxPoint x="414" y="70" as="targetPoint"/>
                    </mxGeometry>
                </mxCell>
                <mxCell id="4" value="x y" style="shape=parallelogram;perimeter=parallelogramPerimeter;whiteSpace=wrap;html=1;fixedSize=1;fillColor=#e51400;fontColor=#ffffff;strokeColor=#B20000;" vertex="1" parent="1">
                    <mxGeometry x="350" y="110" width="120" height="40" as="geometry"/>
                </mxCell>
                <mxCell id="6" value="" style="endArrow=classic;html=1;exitX=0.5;exitY=1;exitDx=0;exitDy=0;" edge="1" parent="1" source="4">
                    <mxGeometry width="50" height="50" relative="1" as="geometry">
                        <mxPoint x="430" y="190" as="sourcePoint"/>
                        <mxPoint x="414" y="180" as="targetPoint"/>
                        <Array as="points">
                            <mxPoint x="414" y="180"/>
                        </Array>
                    </mxGeometry>
                </mxCell>
                <mxCell id="7" value="x=0" style="rhombus;whiteSpace=wrap;html=1;fillColor=#f0a30a;fontColor=#000000;strokeColor=#BD7000;" vertex="1" parent="1">
                    <mxGeometry x="370" y="170" width="80" height="70" as="geometry"/>
                </mxCell>
                <mxCell id="25" value="" style="endArrow=none;html=1;" edge="1" parent="1">
                    <mxGeometry width="50" height="50" relative="1" as="geometry">
                        <mxPoint x="440" y="200" as="sourcePoint"/>
                        <mxPoint x="610" y="230" as="targetPoint"/>
                        <Array as="points">
                            <mxPoint x="610" y="200"/>
                            <mxPoint x="610" y="220"/>
                            <mxPoint x="610" y="230"/>
                        </Array>
                    </mxGeometry>
                </mxCell>
                <mxCell id="29" value="" style="endArrow=none;html=1;entryX=0.088;entryY=0.429;entryDx=0;entryDy=0;entryPerimeter=0;" edge="1" parent="1" target="7">
                    <mxGeometry width="50" height="50" relative="1" as="geometry">
                        <mxPoint x="230" y="230" as="sourcePoint"/>
                        <mxPoint x="370" y="200" as="targetPoint"/>
                        <Array as="points">
                            <mxPoint x="230" y="230"/>
                            <mxPoint x="230" y="220"/>
                            <mxPoint x="230" y="200"/>
                        </Array>
                    </mxGeometry>
                </mxCell>
                <mxCell id="31" value="y=o" style="rhombus;whiteSpace=wrap;html=1;fillColor=#e3c800;fontColor=#000000;strokeColor=#B09500;" vertex="1" parent="1">
                    <mxGeometry x="190" y="220" width="80" height="70" as="geometry"/>
                </mxCell>
                <mxCell id="32" value="y==0" style="rhombus;whiteSpace=wrap;html=1;fillColor=#f0a30a;fontColor=#000000;strokeColor=#BD7000;" vertex="1" parent="1">
                    <mxGeometry x="570" y="220" width="80" height="70" as="geometry"/>
                </mxCell>
                <mxCell id="33" value="" style="endArrow=none;html=1;" edge="1" parent="1">
                    <mxGeometry width="50" height="50" relative="1" as="geometry">
                        <mxPoint x="650" y="250" as="sourcePoint"/>
                        <mxPoint x="777" y="280" as="targetPoint"/>
                        <Array as="points">
                            <mxPoint x="777" y="250"/>
                            <mxPoint x="777" y="270"/>
                            <mxPoint x="777" y="280"/>
                        </Array>
                    </mxGeometry>
                </mxCell>
                <mxCell id="34" value="ORIGEN" style="shape=document;whiteSpace=wrap;html=1;boundedLbl=1;fillColor=#6a00ff;fontColor=#ffffff;strokeColor=#3700CC;" vertex="1" parent="1">
                    <mxGeometry x="730" y="280" width="90" height="60" as="geometry"/>
                </mxCell>
                <mxCell id="37" value="" style="endArrow=none;html=1;" edge="1" parent="1">
                    <mxGeometry width="50" height="50" relative="1" as="geometry">
                        <mxPoint x="480" y="280" as="sourcePoint"/>
                        <mxPoint x="570" y="250" as="targetPoint"/>
                        <Array as="points">
                            <mxPoint x="480" y="280"/>
                            <mxPoint x="480" y="270"/>
                            <mxPoint x="480" y="250"/>
                        </Array>
                    </mxGeometry>
                </mxCell>
                <mxCell id="38" value="Eje Y" style="shape=document;whiteSpace=wrap;html=1;boundedLbl=1;fillColor=#6a00ff;fontColor=#ffffff;strokeColor=#3700CC;" vertex="1" parent="1">
                    <mxGeometry x="450" y="280" width="90" height="60" as="geometry"/>
                </mxCell>
                <mxCell id="43" value="" style="endArrow=classic;html=1;" edge="1" parent="1">
                    <mxGeometry relative="1" as="geometry">
                        <mxPoint x="650" y="380" as="sourcePoint"/>
                        <mxPoint x="780" y="330" as="targetPoint"/>
                        <Array as="points">
                            <mxPoint x="740" y="380"/>
                            <mxPoint x="780" y="380"/>
                        </Array>
                    </mxGeometry>
                </mxCell>
                <mxCell id="47" value="" style="endArrow=classic;html=1;" edge="1" parent="1">
                    <mxGeometry relative="1" as="geometry">
                        <mxPoint x="650" y="380" as="sourcePoint"/>
                        <mxPoint x="480" y="340" as="targetPoint"/>
                        <Array as="points">
                            <mxPoint x="540" y="380"/>
                            <mxPoint x="510" y="380"/>
                            <mxPoint x="480" y="380"/>
                        </Array>
                    </mxGeometry>
                </mxCell>
                <mxCell id="49" value="" style="endArrow=none;html=1;entryX=0.088;entryY=0.429;entryDx=0;entryDy=0;entryPerimeter=0;" edge="1" parent="1">
                    <mxGeometry width="50" height="50" relative="1" as="geometry">
                        <mxPoint x="42.96000000000001" y="280" as="sourcePoint"/>
                        <mxPoint x="189.99999999999997" y="250.02999999999997" as="targetPoint"/>
                        <Array as="points">
                            <mxPoint x="42.96000000000001" y="280"/>
                            <mxPoint x="42.96000000000001" y="270"/>
                            <mxPoint x="42.96000000000001" y="250"/>
                        </Array>
                    </mxGeometry>
                </mxCell>
                <mxCell id="50" value="" style="endArrow=none;html=1;" edge="1" parent="1">
                    <mxGeometry width="50" height="50" relative="1" as="geometry">
                        <mxPoint x="270" y="250" as="sourcePoint"/>
                        <mxPoint x="337" y="280" as="targetPoint"/>
                        <Array as="points">
                            <mxPoint x="337" y="250"/>
                            <mxPoint x="337" y="270"/>
                            <mxPoint x="337" y="280"/>
                        </Array>
                    </mxGeometry>
                </mxCell>
                <mxCell id="51" value="Eje x" style="shape=document;whiteSpace=wrap;html=1;boundedLbl=1;fillColor=#6a00ff;fontColor=#ffffff;strokeColor=#3700CC;" vertex="1" parent="1">
                    <mxGeometry x="280" y="280" width="90" height="50" as="geometry"/>
                </mxCell>
                <mxCell id="52" value="x&amp;gt;0" style="rhombus;whiteSpace=wrap;html=1;fillColor=#e3c800;fontColor=#000000;strokeColor=#B09500;" vertex="1" parent="1">
                    <mxGeometry y="280" width="80" height="70" as="geometry"/>
                </mxCell>
                <mxCell id="53" value="" style="endArrow=none;html=1;entryX=0.088;entryY=0.429;entryDx=0;entryDy=0;entryPerimeter=0;" edge="1" parent="1">
                    <mxGeometry width="50" height="50" relative="1" as="geometry">
                        <mxPoint x="-147" y="340" as="sourcePoint"/>
                        <mxPoint x="0.03999999999996362" y="310.03" as="targetPoint"/>
                        <Array as="points">
                            <mxPoint x="-147" y="340"/>
                            <mxPoint x="-147" y="330"/>
                            <mxPoint x="-147" y="310"/>
                        </Array>
                    </mxGeometry>
                </mxCell>
                <mxCell id="54" value="y&amp;lt;0" style="rhombus;whiteSpace=wrap;html=1;fillColor=#e3c800;fontColor=#000000;strokeColor=#B09500;" vertex="1" parent="1">
                    <mxGeometry x="-190" y="330" width="80" height="70" as="geometry"/>
                </mxCell>
                <mxCell id="56" value="" style="endArrow=none;html=1;" edge="1" parent="1">
                    <mxGeometry width="50" height="50" relative="1" as="geometry">
                        <mxPoint x="-277.04" y="390" as="sourcePoint"/>
                        <mxPoint x="-190" y="360" as="targetPoint"/>
                        <Array as="points">
                            <mxPoint x="-277.04" y="390"/>
                            <mxPoint x="-277.04" y="380"/>
                            <mxPoint x="-277.04" y="360"/>
                        </Array>
                    </mxGeometry>
                </mxCell>
                <mxCell id="57" value="" style="endArrow=none;html=1;" edge="1" parent="1">
                    <mxGeometry width="50" height="50" relative="1" as="geometry">
                        <mxPoint x="340" y="550" as="sourcePoint"/>
                        <mxPoint x="340" y="320" as="targetPoint"/>
                    </mxGeometry>
                </mxCell>
                <mxCell id="58" value="" style="endArrow=none;html=1;" edge="1" parent="1">
                    <mxGeometry width="50" height="50" relative="1" as="geometry">
                        <mxPoint x="80" y="310" as="sourcePoint"/>
                        <mxPoint x="147" y="340" as="targetPoint"/>
                        <Array as="points">
                            <mxPoint x="147" y="310"/>
                            <mxPoint x="147" y="330"/>
                            <mxPoint x="147" y="340"/>
                        </Array>
                    </mxGeometry>
                </mxCell>
                <mxCell id="59" value="y&amp;gt;0" style="rhombus;whiteSpace=wrap;html=1;fillColor=#e3c800;fontColor=#000000;strokeColor=#B09500;" vertex="1" parent="1">
                    <mxGeometry x="110" y="330" width="80" height="70" as="geometry"/>
                </mxCell>
                <mxCell id="60" value="" style="endArrow=none;html=1;" edge="1" parent="1">
                    <mxGeometry width="50" height="50" relative="1" as="geometry">
                        <mxPoint x="190" y="360" as="sourcePoint"/>
                        <mxPoint x="257" y="390" as="targetPoint"/>
                        <Array as="points">
                            <mxPoint x="257" y="360"/>
                            <mxPoint x="257" y="380"/>
                            <mxPoint x="257" y="390"/>
                        </Array>
                    </mxGeometry>
                </mxCell>
                <mxCell id="61" value="CUADRANTE 1" style="shape=document;whiteSpace=wrap;html=1;boundedLbl=1;fillColor=#6a00ff;fontColor=#ffffff;strokeColor=#3700CC;" vertex="1" parent="1">
                    <mxGeometry x="210" y="390" width="90" height="50" as="geometry"/>
                </mxCell>
                <mxCell id="62" value="" style="endArrow=none;html=1;" edge="1" parent="1">
                    <mxGeometry width="50" height="50" relative="1" as="geometry">
                        <mxPoint x="42.960000000000036" y="390" as="sourcePoint"/>
                        <mxPoint x="110" y="360" as="targetPoint"/>
                        <Array as="points">
                            <mxPoint x="42.95999999999998" y="390"/>
                            <mxPoint x="42.95999999999998" y="380"/>
                            <mxPoint x="42.95999999999998" y="360"/>
                        </Array>
                    </mxGeometry>
                </mxCell>
                <mxCell id="63" value="CUADRANTE 4" style="shape=document;whiteSpace=wrap;html=1;boundedLbl=1;fillColor=#6a00ff;fontColor=#ffffff;strokeColor=#3700CC;" vertex="1" parent="1">
                    <mxGeometry y="390" width="90" height="50" as="geometry"/>
                </mxCell>
                <mxCell id="64" value="" style="endArrow=classic;html=1;" edge="1" parent="1">
                    <mxGeometry relative="1" as="geometry">
                        <mxPoint x="150" y="470" as="sourcePoint"/>
                        <mxPoint x="40" y="440" as="targetPoint"/>
                        <Array as="points">
                            <mxPoint x="100" y="470"/>
                            <mxPoint x="70" y="470"/>
                            <mxPoint x="40" y="470"/>
                        </Array>
                    </mxGeometry>
                </mxCell>
                <mxCell id="65" value="" style="endArrow=classic;html=1;" edge="1" parent="1">
                    <mxGeometry relative="1" as="geometry">
                        <mxPoint x="150" y="470" as="sourcePoint"/>
                        <mxPoint x="260" y="440" as="targetPoint"/>
                        <Array as="points">
                            <mxPoint x="220" y="470"/>
                            <mxPoint x="260" y="470"/>
                        </Array>
                    </mxGeometry>
                </mxCell>
                <mxCell id="66" value="" style="endArrow=none;html=1;" edge="1" parent="1">
                    <mxGeometry width="50" height="50" relative="1" as="geometry">
                        <mxPoint x="-110" y="360" as="sourcePoint"/>
                        <mxPoint x="-43" y="390" as="targetPoint"/>
                        <Array as="points">
                            <mxPoint x="-43" y="360"/>
                            <mxPoint x="-43" y="380"/>
                            <mxPoint x="-43" y="390"/>
                        </Array>
                    </mxGeometry>
                </mxCell>
                <mxCell id="67" value="CUADRANTE 3" style="shape=document;whiteSpace=wrap;html=1;boundedLbl=1;fillColor=#6a00ff;fontColor=#ffffff;strokeColor=#3700CC;" vertex="1" parent="1">
                    <mxGeometry x="-100" y="390" width="80" height="50" as="geometry"/>
                </mxCell>
                <mxCell id="68" value="CUADRANTE 2" style="shape=document;whiteSpace=wrap;html=1;boundedLbl=1;fillColor=#6a00ff;fontColor=#ffffff;strokeColor=#3700CC;" vertex="1" parent="1">
                    <mxGeometry x="-310" y="390" width="80" height="50" as="geometry"/>
                </mxCell>
                <mxCell id="69" value="" style="endArrow=classic;html=1;" edge="1" parent="1">
                    <mxGeometry relative="1" as="geometry">
                        <mxPoint x="-170" y="470" as="sourcePoint"/>
                        <mxPoint x="-280" y="440" as="targetPoint"/>
                        <Array as="points">
                            <mxPoint x="-220" y="470"/>
                            <mxPoint x="-250" y="470"/>
                            <mxPoint x="-280" y="470"/>
                        </Array>
                    </mxGeometry>
                </mxCell>
                <mxCell id="70" value="" style="endArrow=classic;html=1;" edge="1" parent="1">
                    <mxGeometry relative="1" as="geometry">
                        <mxPoint x="-170" y="470" as="sourcePoint"/>
                        <mxPoint x="-60" y="440" as="targetPoint"/>
                        <Array as="points">
                            <mxPoint x="-100" y="470"/>
                            <mxPoint x="-60" y="470"/>
                        </Array>
                    </mxGeometry>
                </mxCell>
                <mxCell id="71" value="" style="endArrow=classic;html=1;" edge="1" parent="1">
                    <mxGeometry relative="1" as="geometry">
                        <mxPoint x="480" y="560" as="sourcePoint"/>
                        <mxPoint x="-160" y="470" as="targetPoint"/>
                        <Array as="points">
                            <mxPoint x="-100" y="555"/>
                            <mxPoint x="-130" y="555"/>
                            <mxPoint x="-160" y="555"/>
                        </Array>
                    </mxGeometry>
                </mxCell>
                <mxCell id="72" value="" style="endArrow=classic;html=1;" edge="1" parent="1">
                    <mxGeometry relative="1" as="geometry">
                        <mxPoint x="480" y="560" as="sourcePoint"/>
                        <mxPoint x="620" y="380" as="targetPoint"/>
                        <Array as="points">
                            <mxPoint x="580" y="560"/>
                            <mxPoint x="620" y="560"/>
                        </Array>
                    </mxGeometry>
                </mxCell>
                <mxCell id="73" value="" style="endArrow=none;html=1;" edge="1" parent="1">
                    <mxGeometry width="50" height="50" relative="1" as="geometry">
                        <mxPoint x="370" y="615" as="sourcePoint"/>
                        <mxPoint x="370" y="555" as="targetPoint"/>
                    </mxGeometry>
                </mxCell>
                <mxCell id="74" value="fin" style="ellipse;whiteSpace=wrap;html=1;fillColor=#e51400;fontColor=#ffffff;strokeColor=#B20000;" vertex="1" parent="1">
                    <mxGeometry x="320" y="590" width="90" height="50" as="geometry"/>
                </mxCell>
            </root>
        </mxGraphModel>
    </diagram>
</mxfile>